<mxfile host="app.diagrams.net" modified="2023-05-22T02:56:56.240Z" agent="Mozilla/5.0 (Macintosh; Intel Mac OS X 10_15_7) AppleWebKit/605.1.15 (KHTML, like Gecko) Version/16.4 Safari/605.1.15" etag="qoa0-1aTILydKeWD3Dyi" version="21.3.2" type="github">
  <diagram name="PÃ¡gina-1" id="dgo7cwSUL4VlbmiZqwIb">
    <mxGraphModel dx="1026" dy="633" grid="1" gridSize="10" guides="1" tooltips="1" connect="1" arrows="1" fold="1" page="1" pageScale="1" pageWidth="827" pageHeight="1169" math="0" shadow="0">
      <root>
        <mxCell id="0" />
        <mxCell id="1" parent="0" />
      </root>
    </mxGraphModel>
  </diagram>
</mxfile>
